{"glyphs":{":":{"x_min":0,"x_max":264,"ha":264,"o":"m 132 -12 q 104 -12 85 6 q 66 25 66 53 q 66 81 85 100 q 104 119 132 119 q 160 119 179 100 q 198 81 198 53 q 198 26 179 7 q 160 -12 132 -12 z m 132 340 q 104 340 85 358 q 66 376 66 404 q 66 432 85 451 q 104 470 132 470 q 160 470 179 451 q 198 432 198 404 q 198 377 179 358 q 160 340 132 340 z"},"$":{"x_min":0,"x_max":528,"ha":528,"o":"m 293 309 l 293 63 l 299 63 q 356 63 395 98 q 433 133 433 184 q 433 230 396 264 q 358 297 293 309 z m 244 406 l 244 616 q 194 613 165 586 q 136 559 136 516 q 136 476 164 448 q 191 419 244 406 z m 53 226 l 118 226 q 125 160 159 118 q 192 76 244 66 l 244 321 q 149 342 103 388 q 57 434 57 507 q 57 581 109 630 q 160 679 244 684 l 244 736 l 293 736 l 293 681 q 333 676 364 655 q 395 635 412 601 l 408 676 l 466 676 l 466 483 l 407 483 q 392 540 363 573 q 334 605 293 613 l 293 394 q 407 366 460 318 q 512 271 512 194 q 512 107 451 52 q 390 -4 293 -5 l 293 -86 l 244 -86 l 244 -5 q 197 3 164 28 q 131 53 109 97 l 111 0 l 53 0 z"},"?":{"x_min":0,"x_max":541,"ha":541,"o":"m 216 177 l 216 413 q 223 413 231 412 q 238 412 248 412 q 309 412 345 446 q 381 480 381 537 q 381 592 351 624 q 321 655 268 655 q 214 655 185 625 q 156 594 151 532 l 70 532 q 71 627 123 681 q 175 734 268 734 q 362 734 416 683 q 470 632 470 543 q 470 458 424 404 q 378 349 300 340 l 300 177 z m 252 -12 q 224 -12 205 6 q 187 25 187 53 q 187 82 206 100 q 224 119 252 119 q 280 119 299 100 q 318 81 318 53 q 318 26 299 7 q 280 -12 252 -12 z"},"<":{"x_min":0,"x_max":833,"ha":833,"o":"m 704 497 l 216 298 l 704 100 l 704 37 l 129 273 l 129 323 l 704 559 z"},"'":{"x_min":0,"x_max":149,"ha":149,"o":"m 103 700 l 103 430 l 46 430 l 46 700 z"},"=":{"x_min":0,"x_max":833,"ha":833,"o":"m 709 233 l 709 176 l 124 176 l 124 233 z m 709 420 l 709 363 l 124 363 l 124 420 z"},"a":{"x_min":0,"x_max":616,"ha":616,"o":"m 119 229 q 119 156 164 108 q 209 60 276 60 q 343 60 387 108 q 432 156 432 229 q 432 302 387 350 q 343 397 276 397 q 207 397 163 350 q 119 303 119 229 z m 512 69 l 582 69 l 582 0 l 426 0 l 426 61 q 398 25 357 7 q 316 -11 264 -11 q 164 -11 96 58 q 29 127 29 229 q 29 331 97 401 q 165 470 264 470 q 314 470 355 452 q 395 434 426 398 l 426 458 l 582 458 l 582 389 l 512 389 z"},"L":{"x_min":0,"x_max":545,"ha":545,"o":"m 27 0 l 27 72 l 105 72 l 105 648 l 27 648 l 27 720 l 291 720 l 291 648 l 200 648 l 200 72 l 441 72 l 441 213 l 526 213 l 526 0 z"},"3":{"x_min":0,"x_max":528,"ha":528,"o":"m 128 221 q 130 146 165 105 q 200 65 263 65 q 317 65 353 102 q 388 139 388 195 q 388 257 348 292 q 309 326 237 326 l 234 326 l 234 395 l 237 395 q 303 395 342 429 q 381 463 381 520 q 381 575 351 606 q 321 637 269 637 q 201 637 168 598 q 135 558 135 475 l 135 467 l 53 467 l 53 480 q 53 590 111 653 q 168 715 269 715 q 360 715 415 662 q 469 610 469 522 q 469 465 441 425 q 413 384 359 365 q 415 352 446 306 q 478 261 478 194 q 478 102 417 44 q 356 -14 257 -14 q 162 -14 104 44 q 45 103 45 197 q 45 205 45 210 q 45 216 46 221 z"},";":{"x_min":0,"x_max":319,"ha":319,"o":"m 169 340 q 141 340 122 358 q 103 376 103 404 q 103 432 122 451 q 141 470 169 470 q 197 470 216 451 q 235 432 235 404 q 235 377 216 358 q 197 340 169 340 z m 119 106 l 209 106 l 142 -106 l 56 -106 z"},"J":{"x_min":0,"x_max":310,"ha":310,"o":"m 0 -115 l 0 -31 q 4 -31 13 -31 q 22 -32 27 -32 q 75 -32 92 -13 q 110 7 110 72 l 110 648 l 12 648 l 12 720 l 295 720 l 295 648 l 205 648 l 205 72 q 205 -25 165 -70 q 125 -115 39 -115 z"},"V":{"x_min":0,"x_max":655,"ha":655,"o":"m 297 -12 l 83 648 l 13 648 l 13 720 l 252 720 l 252 648 l 180 648 l 328 177 l 482 648 l 403 648 l 403 720 l 642 720 l 642 648 l 572 648 l 354 -12 z"},"\"":{"x_min":0,"x_max":288,"ha":288,"o":"m 242 700 l 242 430 l 184 430 l 184 700 z m 103 700 l 103 430 l 46 430 l 46 700 z"},"7":{"x_min":0,"x_max":528,"ha":528,"o":"m 126 0 l 396 628 l 141 628 l 141 499 l 57 499 l 57 701 l 489 701 l 489 637 l 221 0 z"},"S":{"x_min":0,"x_max":664,"ha":664,"o":"m 160 78 l 160 0 l 79 0 l 79 247 l 160 247 q 181 163 237 116 q 292 69 369 69 q 427 69 467 105 q 506 141 506 195 q 506 242 474 271 q 442 300 368 320 l 293 340 q 186 369 137 417 q 88 464 88 540 q 88 627 147 681 q 207 734 305 734 q 365 734 409 715 q 453 695 481 657 l 481 720 l 551 720 l 551 513 l 481 513 q 462 581 415 617 q 368 653 299 653 q 244 653 209 623 q 174 594 174 547 q 174 503 202 479 q 230 454 308 434 l 366 419 q 491 388 546 336 q 602 284 602 200 q 602 107 535 47 q 467 -14 364 -14 q 305 -14 249 11 q 193 36 160 78 z"},"}":{"x_min":0,"x_max":500,"ha":500,"o":"m 275 543 l 275 424 q 275 350 302 319 q 329 289 395 289 q 398 289 406 290 q 413 290 417 290 l 417 228 q 413 228 406 229 q 398 229 395 229 q 329 229 302 199 q 275 168 275 94 l 275 -24 q 275 -99 264 -130 q 253 -161 227 -178 q 208 -191 179 -197 q 151 -202 101 -202 l 81 -202 l 81 -141 q 85 -141 92 -142 q 100 -142 103 -142 q 162 -142 183 -119 q 204 -96 204 -22 l 204 95 q 204 176 225 210 q 247 244 301 259 q 247 274 225 308 q 204 342 204 423 l 204 541 q 204 614 183 637 q 161 660 100 660 l 81 660 l 81 721 l 98 721 q 147 721 177 715 q 207 709 227 696 q 253 679 264 648 q 275 617 275 543 z"},"Z":{"x_min":0,"x_max":648,"ha":648,"o":"m 496 72 l 496 220 l 577 220 l 577 0 l 71 0 l 71 72 l 462 648 l 163 648 l 163 524 l 82 524 l 82 720 l 577 720 l 577 648 l 183 72 z"},"x":{"x_min":0,"x_max":500,"ha":500,"o":"m 199 0 l 2 0 l 2 69 l 63 69 l 200 229 l 66 389 l 9 389 l 9 458 l 220 458 l 220 389 l 164 389 l 256 281 l 345 389 l 297 389 l 297 458 l 493 458 l 493 389 l 433 389 l 295 234 l 439 69 l 497 69 l 497 0 l 281 0 l 281 69 l 338 69 l 243 180 l 147 69 l 199 69 z"},")":{"x_min":0,"x_max":326,"ha":326,"o":"m 104 -107 l 42 -61 q 105 18 140 115 q 174 212 174 313 q 174 412 141 507 q 108 603 44 689 l 104 734 q 182 639 222 531 q 262 424 262 313 q 262 202 222 95 q 182 -11 104 -107 z"},"&":{"x_min":0,"x_max":683,"ha":683,"o":"m 669 0 l 539 0 l 455 90 q 401 34 348 10 q 296 -14 226 -14 q 138 -14 83 37 q 28 89 28 170 q 28 232 61 282 q 93 333 174 392 q 126 447 105 491 q 84 535 84 575 q 84 645 131 689 q 178 734 253 734 q 328 734 374 689 q 420 645 420 571 q 420 521 388 476 q 357 430 290 383 l 455 203 q 486 244 507 290 q 528 336 539 387 l 457 387 l 457 456 l 669 456 l 669 387 l 609 387 q 594 324 567 266 q 541 208 501 152 l 580 72 l 669 72 z m 245 437 q 293 473 315 506 q 336 539 336 578 q 336 618 314 644 q 293 669 259 669 q 221 669 197 646 q 173 622 173 584 q 173 549 190 515 q 207 480 245 437 z m 406 143 l 229 332 q 172 292 149 257 q 126 223 126 181 q 126 128 160 97 q 194 66 253 66 q 294 66 334 86 q 374 106 406 143 z"},"_":{"x_min":0,"x_max":500,"ha":500,"o":"m 500 -178 l 500 -236 l 0 -236 l 0 -178 z"},"v":{"x_min":0,"x_max":481,"ha":481,"o":"m 205 -12 l 47 389 l -5 389 l -5 458 l 201 458 l 201 389 l 134 389 l 244 110 l 356 389 l 287 389 l 287 458 l 487 458 l 487 389 l 434 389 l 276 -12 z"},"O":{"x_min":0,"x_max":810,"ha":810,"o":"m 34 360 q 34 519 140 626 q 246 734 405 734 q 468 734 522 717 q 577 700 624 665 q 698 612 737 533 q 777 454 777 360 q 777 202 670 94 q 564 -14 405 -14 q 246 -14 140 93 q 34 201 34 360 z m 131 360 q 131 234 209 152 q 288 70 405 70 q 522 70 601 152 q 679 234 679 360 q 679 486 601 568 q 522 650 405 650 q 288 650 209 568 q 131 486 131 360 z"},"(":{"x_min":0,"x_max":326,"ha":326,"o":"m 222 -107 q 145 -11 104 95 q 64 202 64 313 q 64 424 104 531 q 145 639 222 734 l 282 689 q 218 603 185 507 q 152 412 152 313 q 152 212 186 115 q 220 18 284 -61 z"},"C":{"x_min":0,"x_max":750,"ha":750,"o":"m 710 227 q 682 113 600 49 q 518 -14 397 -14 q 237 -14 134 92 q 31 197 31 360 q 31 521 133 627 q 235 734 390 734 q 459 734 515 713 q 571 692 607 653 l 607 720 l 685 720 l 685 497 l 611 497 q 586 574 533 612 q 479 650 396 650 q 274 650 202 571 q 129 492 129 360 q 129 231 205 150 q 280 70 401 70 q 481 70 536 109 q 590 148 621 227 z"},"W":{"x_min":0,"x_max":944,"ha":944,"o":"m 318 -12 l 255 -12 l 59 648 l -3 648 l -3 720 l 229 720 l 229 648 l 152 648 l 294 170 l 438 648 l 356 648 l 356 720 l 598 720 l 598 648 l 515 648 l 660 170 l 802 648 l 725 648 l 725 720 l 947 720 l 947 648 l 885 648 l 689 -12 l 627 -12 l 472 505 z"},"A":{"x_min":0,"x_max":664,"ha":664,"o":"m 225 315 l 431 315 l 345 566 q 344 568 343 573 q 332 605 328 631 q 325 616 322 601 q 318 587 311 566 z m 233 72 l 233 0 l -12 0 l -12 72 l 55 72 l 260 648 l 172 648 l 172 720 l 500 720 l 500 648 l 411 648 l 607 72 l 676 72 l 676 0 l 420 0 l 420 72 l 506 72 l 449 243 l 203 243 l 146 72 z"},"f":{"x_min":0,"x_max":303,"ha":303,"o":"m 281 0 l 26 0 l 26 69 l 104 69 l 104 389 l 26 389 l 26 458 l 104 458 l 104 533 q 104 633 137 677 q 171 720 246 720 q 257 720 265 720 q 273 720 283 719 l 283 655 l 260 655 q 220 655 205 634 q 190 614 190 543 l 190 458 l 283 458 l 283 389 l 190 389 l 190 69 l 281 69 z"},"Q":{"x_min":0,"x_max":810,"ha":810,"o":"m 567 21 l 598 -37 l 709 -37 l 709 -123 l 544 -123 l 487 -6 q 458 -10 436 -12 q 413 -14 397 -14 q 330 -14 269 9 q 208 33 158 77 q 98 130 66 203 q 34 276 34 360 q 34 520 140 627 q 246 734 405 734 q 468 734 522 717 q 577 700 624 665 q 698 612 737 533 q 777 454 777 360 q 777 249 723 162 q 668 74 567 21 z m 530 98 q 604 139 641 206 q 679 272 679 360 q 679 486 601 568 q 522 650 405 650 q 288 650 209 568 q 131 486 131 360 q 131 234 209 152 q 288 70 405 70 q 413 70 428 71 q 444 73 449 73 l 410 154 l 484 192 z"},"w":{"x_min":0,"x_max":733,"ha":733,"o":"m 475 458 l 475 389 l 408 389 l 516 128 l 614 389 l 548 389 l 548 458 l 747 458 l 747 389 l 691 389 l 543 -12 l 494 -12 l 371 280 l 249 -12 l 200 -12 l 52 389 l -4 389 l -4 458 l 202 458 l 202 389 l 137 389 l 234 128 l 342 389 l 276 389 l 276 458 z"},"-":{"x_min":0,"x_max":308,"ha":308,"o":"m 28 194 l 28 274 l 280 274 l 280 194 z"},"E":{"x_min":0,"x_max":613,"ha":613,"o":"m 27 0 l 27 72 l 105 72 l 105 648 l 27 648 l 27 720 l 584 720 l 584 525 l 499 525 l 499 648 l 200 648 l 200 419 l 450 419 l 450 340 l 200 340 l 200 72 l 499 72 l 499 213 l 584 213 l 584 0 z"},"s":{"x_min":0,"x_max":475,"ha":475,"o":"m 109 0 l 42 0 l 42 149 l 109 149 q 127 106 170 81 q 212 56 266 56 q 311 56 338 75 q 366 94 366 124 q 366 148 351 161 q 335 174 297 181 l 189 200 q 114 213 79 246 q 44 279 44 336 q 44 398 89 434 q 134 470 213 470 q 261 470 298 456 q 335 442 350 419 l 350 458 l 418 458 l 418 317 l 350 317 q 326 364 293 386 q 260 407 212 407 q 171 407 146 389 q 122 371 122 341 q 122 317 140 303 q 158 289 197 282 l 291 266 q 376 251 410 222 q 444 192 444 135 q 444 69 395 28 q 346 -12 266 -12 q 220 -12 182 2 q 143 17 109 46 z"},">":{"x_min":0,"x_max":833,"ha":833,"o":"m 704 323 l 704 273 l 129 37 l 129 100 l 617 298 l 129 497 l 129 559 z"},"l":{"x_min":0,"x_max":280,"ha":280,"o":"m 101 650 l 22 650 l 22 720 l 187 720 l 187 69 l 266 69 l 266 0 l 22 0 l 22 69 l 101 69 z"},"8":{"x_min":0,"x_max":528,"ha":528,"o":"m 264 65 q 318 65 354 102 q 391 138 391 192 q 391 246 354 282 q 317 319 264 319 q 211 319 174 282 q 137 245 137 192 q 137 138 174 102 q 210 65 264 65 z m 168 362 q 117 383 88 425 q 60 467 60 522 q 60 607 117 661 q 175 716 264 716 q 353 716 410 662 q 468 607 468 523 q 468 467 439 425 q 411 382 360 362 q 415 340 446 292 q 478 245 478 186 q 478 100 417 43 q 357 -14 264 -14 q 170 -14 109 43 q 49 100 49 186 q 49 245 81 293 q 113 340 168 362 z m 264 394 q 314 394 349 429 q 383 464 383 516 q 383 569 349 604 q 315 639 264 639 q 213 639 179 604 q 145 569 145 516 q 145 464 179 429 q 214 394 264 394 z"},"\\":{"x_min":0,"x_max":306,"ha":306,"o":"m 248 -93 l 2 734 l 58 734 l 304 -93 z"},"e":{"x_min":0,"x_max":544,"ha":544,"o":"m 118 271 l 426 271 q 416 334 377 367 q 337 400 272 400 q 207 400 167 367 q 128 334 118 271 z m 504 136 q 472 67 410 27 q 349 -12 271 -12 q 162 -12 95 55 q 29 123 29 234 q 29 341 95 406 q 162 470 272 470 q 381 470 448 400 q 515 331 515 215 l 515 204 l 118 204 q 123 140 169 100 q 214 60 283 60 q 327 60 364 80 q 400 100 424 136 z"},"b":{"x_min":0,"x_max":611,"ha":611,"o":"m 179 229 q 179 156 224 108 q 269 60 335 60 q 402 60 447 108 q 492 156 492 229 q 492 303 448 350 q 404 397 335 397 q 268 397 223 350 q 179 303 179 229 z m 29 650 l 29 720 l 185 720 l 185 403 q 219 438 258 454 q 297 470 347 470 q 447 470 515 401 q 582 331 582 229 q 582 126 514 57 q 445 -11 341 -11 q 292 -11 255 4 q 218 20 185 55 l 185 0 l 29 0 l 29 69 l 99 69 l 99 650 z"},"%":{"x_min":0,"x_max":881,"ha":881,"o":"m 212 431 q 254 431 283 460 q 311 488 311 531 q 311 574 282 603 q 254 632 212 632 q 170 632 141 603 q 112 574 112 531 q 112 489 141 460 q 170 431 212 431 z m 382 531 q 382 460 332 410 q 283 361 212 361 q 142 361 92 410 q 42 460 42 531 q 42 603 91 652 q 141 701 212 701 q 283 701 333 652 q 382 603 382 531 z m 644 715 l 705 715 l 236 -14 l 177 -14 z m 669 70 q 711 70 740 99 q 769 127 769 170 q 769 213 740 242 q 711 271 669 271 q 627 271 598 242 q 570 213 570 170 q 570 128 599 99 q 627 70 669 70 z m 840 170 q 840 99 790 50 q 740 0 669 0 q 599 0 550 50 q 500 99 500 170 q 500 242 549 291 q 598 340 669 340 q 740 340 790 291 q 840 241 840 170 z"},"m":{"x_min":0,"x_max":853,"ha":853,"o":"m 189 393 q 238 440 271 455 q 305 470 346 470 q 395 470 426 449 q 457 428 467 386 q 508 431 546 450 q 583 470 626 470 q 701 470 735 431 q 769 392 769 306 l 769 69 l 840 69 l 840 0 l 615 0 l 615 69 l 684 69 l 684 275 q 684 346 667 369 q 650 393 609 393 q 570 393 536 372 q 502 350 479 310 l 479 69 l 550 69 l 550 0 l 323 0 l 323 69 l 394 69 l 394 275 q 394 345 378 369 q 362 393 323 393 q 289 393 256 374 q 224 355 189 314 l 189 69 l 258 69 l 258 0 l 33 0 l 33 69 l 104 69 l 104 389 l 33 389 l 33 458 l 189 458 z"},"#":{"x_min":0,"x_max":769,"ha":769,"o":"m 475 421 l 346 421 l 300 288 l 428 288 z m 450 711 l 369 481 l 496 481 l 578 711 l 648 711 l 568 481 l 718 481 l 697 421 l 545 421 l 499 288 l 660 288 l 639 228 l 477 228 l 396 -1 l 325 -1 l 407 228 l 278 228 l 196 -1 l 126 -1 l 207 228 l 51 228 l 72 288 l 228 288 l 275 421 l 108 421 l 129 481 l 297 481 l 379 711 z"},",":{"x_min":0,"x_max":264,"ha":264,"o":"m 102 106 l 193 106 l 125 -106 l 39 -106 z"},"n":{"x_min":0,"x_max":583,"ha":583,"o":"m 500 69 l 570 69 l 570 0 l 344 0 l 344 69 l 414 69 l 414 275 q 414 347 396 370 q 377 393 333 393 q 297 393 262 374 q 227 354 189 314 l 189 69 l 260 69 l 260 0 l 33 0 l 33 69 l 104 69 l 104 389 l 33 389 l 33 458 l 189 458 l 189 393 q 229 433 270 451 q 311 470 356 470 q 396 470 427 456 q 458 442 477 416 q 489 400 495 380 q 500 361 500 323 l 500 306 z"},"h":{"x_min":0,"x_max":581,"ha":581,"o":"m 498 69 l 568 69 l 568 0 l 341 0 l 341 69 l 412 69 l 412 275 q 412 347 394 370 q 375 392 331 392 q 295 392 260 373 q 225 354 187 314 l 187 69 l 258 69 l 258 0 l 31 0 l 31 69 l 101 69 l 101 650 l 31 650 l 31 720 l 187 720 l 187 393 q 227 433 268 451 q 309 470 354 470 q 393 470 424 456 q 455 442 474 416 q 487 399 492 378 q 498 356 498 315 l 498 306 z"},"z":{"x_min":0,"x_max":486,"ha":486,"o":"m 444 0 l 50 0 l 50 69 l 329 389 l 135 389 l 135 305 l 61 305 l 61 458 l 435 458 l 435 389 l 154 69 l 370 69 l 370 167 l 444 167 z"},"B":{"x_min":0,"x_max":604,"ha":604,"o":"m 200 348 l 200 72 l 264 72 q 364 72 409 105 q 454 138 454 210 q 454 278 406 313 q 358 348 264 348 z m 200 648 l 200 413 l 272 413 q 349 413 388 443 q 427 473 427 531 q 427 589 388 618 q 349 648 272 648 z m 26 0 l 26 72 l 105 72 l 105 648 l 26 648 l 26 720 l 276 720 q 397 720 460 675 q 522 629 522 541 q 522 485 488 444 q 454 403 394 388 q 477 360 514 316 q 551 272 551 204 q 551 108 489 54 q 426 0 315 0 z"},"K":{"x_min":0,"x_max":635,"ha":635,"o":"m 200 72 l 279 72 l 279 0 l 27 0 l 27 72 l 105 72 l 105 648 l 27 648 l 27 720 l 279 720 l 279 648 l 200 648 l 200 375 l 451 648 l 378 648 l 378 720 l 628 720 l 628 648 l 562 648 l 304 371 l 570 72 l 641 72 l 641 0 l 378 0 l 378 72 l 450 72 l 200 355 z"},"R":{"x_min":0,"x_max":646,"ha":646,"o":"m 200 72 l 279 72 l 279 0 l 27 0 l 27 72 l 105 72 l 105 648 l 27 648 l 27 720 l 335 720 q 459 720 518 676 q 577 632 577 540 q 577 480 548 441 q 519 401 454 372 q 507 356 528 324 q 548 292 548 212 l 548 72 l 627 72 l 627 0 l 453 0 l 453 198 q 453 285 424 312 q 395 339 316 339 l 200 339 z m 200 648 l 200 411 l 303 411 q 396 411 437 439 q 479 468 479 530 q 479 594 439 621 q 399 648 303 648 z"},"T":{"x_min":0,"x_max":579,"ha":579,"o":"m 337 72 l 416 72 l 416 0 l 163 0 l 163 72 l 242 72 l 242 648 l 105 648 l 105 519 l 24 519 l 24 720 l 555 720 l 555 519 l 473 519 l 473 648 l 337 648 z"},"P":{"x_min":0,"x_max":581,"ha":581,"o":"m 200 72 l 288 72 l 288 0 l 27 0 l 27 72 l 105 72 l 105 648 l 27 648 l 27 720 l 297 720 q 432 720 502 663 q 572 605 572 496 q 572 391 500 331 q 427 272 297 272 l 200 272 z m 200 650 l 200 344 l 287 344 q 380 344 427 383 q 474 421 474 497 q 474 573 424 612 q 373 650 273 650 z"},"|":{"x_min":0,"x_max":500,"ha":500,"o":"m 281 764 l 281 -236 l 219 -236 l 219 764 z"},"t":{"x_min":0,"x_max":287,"ha":287,"o":"m 166 162 l 166 147 q 166 92 176 80 q 185 69 219 69 q 225 69 251 73 l 256 74 l 256 1 q 241 -1 224 -3 q 207 -4 184 -4 q 128 -4 106 15 q 85 35 85 84 l 85 389 l 2 389 l 2 458 l 85 458 l 85 629 l 166 629 l 166 458 l 256 458 l 256 389 l 166 389 z"},"M":{"x_min":0,"x_max":877,"ha":877,"o":"m 197 72 l 275 72 l 275 0 l 27 0 l 27 72 l 108 72 l 108 648 l 27 648 l 27 720 l 259 720 l 443 212 l 632 720 l 850 720 l 850 648 l 769 648 l 769 72 l 850 72 l 850 0 l 602 0 l 602 72 l 680 72 l 680 629 l 467 68 l 410 68 l 197 629 z"},"g":{"x_min":0,"x_max":609,"ha":609,"o":"m 512 71 l 512 54 q 512 -20 507 -53 q 501 -86 489 -109 q 463 -157 408 -183 q 354 -209 280 -209 q 194 -209 135 -172 q 77 -135 54 -66 l 145 -66 q 160 -101 194 -119 q 228 -137 279 -137 q 357 -137 392 -104 q 426 -70 426 10 l 426 55 q 393 20 356 4 q 319 -11 270 -11 q 166 -11 97 57 q 29 126 29 229 q 29 331 96 401 q 164 470 264 470 q 313 470 353 454 q 392 438 426 403 l 426 458 l 582 458 l 582 389 l 512 389 z m 119 229 q 119 156 164 108 q 209 60 276 60 q 343 60 387 108 q 432 156 432 229 q 432 302 387 350 q 343 397 276 397 q 207 397 163 350 q 119 303 119 229 z"},"j":{"x_min":0,"x_max":252,"ha":252,"o":"m 65 572 l 65 664 l 189 664 l 189 572 z m 189 14 q 189 -113 148 -159 q 106 -206 3 -208 l 3 -133 q 61 -133 82 -106 q 103 -79 103 14 l 103 389 l 24 389 l 24 458 l 189 458 z"},"i":{"x_min":0,"x_max":277,"ha":277,"o":"m 66 572 l 66 664 l 189 664 l 189 572 z m 189 69 l 269 69 l 269 0 l 25 0 l 25 69 l 104 69 l 104 389 l 25 389 l 25 458 l 189 458 z"},"y":{"x_min":0,"x_max":501,"ha":501,"o":"m 289 -208 l 50 -208 l 50 -139 l 134 -139 l 204 20 l 50 389 l -11 389 l -11 458 l 209 458 l 209 389 l 135 389 l 249 120 l 368 389 l 298 389 l 298 458 l 509 458 l 509 389 l 448 389 l 211 -139 l 289 -139 z"},"@":{"x_min":0,"x_max":1000,"ha":1000,"o":"m 631 412 l 659 471 l 713 471 l 644 194 q 641 182 640 172 q 638 163 638 155 q 638 133 652 122 q 665 111 692 111 q 714 111 741 123 q 768 134 791 154 q 834 191 859 250 q 884 309 884 374 q 884 504 788 583 q 693 662 535 662 q 453 662 383 637 q 312 611 256 562 q 188 502 153 424 q 118 346 118 251 q 118 167 148 103 q 177 39 239 -10 q 288 -49 356 -71 q 424 -92 500 -92 q 584 -92 663 -68 q 743 -44 808 0 l 830 -32 q 758 -85 677 -113 q 596 -140 508 -140 q 415 -140 338 -117 q 261 -95 203 -50 q 128 7 92 83 q 55 159 55 255 q 55 334 80 406 q 104 477 153 537 q 224 623 323 667 q 423 712 545 712 q 625 712 697 691 q 768 669 818 630 q 881 582 913 518 q 946 454 946 380 q 946 297 915 229 q 885 161 826 114 q 792 87 754 73 q 715 59 674 59 q 625 59 601 78 q 577 97 577 135 q 577 136 578 140 q 578 144 578 146 q 553 104 516 81 q 479 59 433 59 q 358 59 319 101 q 280 142 280 221 q 280 333 347 411 q 414 489 509 489 q 553 489 584 469 q 614 450 631 412 z m 587 231 l 616 349 q 608 393 581 417 q 554 442 515 442 q 444 442 396 378 q 348 313 348 218 q 348 164 373 135 q 398 106 444 106 q 494 106 533 140 q 573 175 587 231 z"},".":{"x_min":0,"x_max":264,"ha":264,"o":"m 132 -12 q 104 -12 85 6 q 66 25 66 53 q 66 81 85 100 q 104 119 132 119 q 160 119 179 100 q 198 81 198 53 q 198 26 179 7 q 160 -12 132 -12 z"},"p":{"x_min":0,"x_max":597,"ha":597,"o":"m 478 229 q 478 302 433 350 q 389 397 322 397 q 255 397 210 350 q 166 303 166 229 q 166 156 211 108 q 255 60 322 60 q 389 60 434 108 q 478 155 478 229 z m 85 389 l 15 389 l 15 458 l 171 458 l 171 403 q 205 437 244 454 q 284 470 334 470 q 434 470 501 401 q 568 332 568 229 q 568 125 500 57 q 433 -11 328 -11 q 278 -11 241 4 q 204 20 171 55 l 171 -139 l 246 -139 l 246 -208 l 15 -208 l 15 -139 l 85 -139 z"},"X":{"x_min":0,"x_max":655,"ha":655,"o":"m 328 287 l 191 72 l 275 72 l 275 0 l 17 0 l 17 72 l 96 72 l 283 360 l 97 648 l 21 648 l 21 720 l 280 720 l 280 648 l 207 648 l 334 443 l 472 648 l 381 648 l 381 720 l 642 720 l 642 648 l 570 648 l 381 364 l 567 72 l 642 72 l 642 0 l 375 0 l 375 72 l 462 72 z"},"*":{"x_min":0,"x_max":500,"ha":500,"o":"m 217 734 l 288 734 l 281 605 l 400 658 l 425 591 l 294 550 l 388 458 l 334 412 l 250 513 l 167 412 l 113 458 l 207 550 l 75 591 l 100 658 l 222 605 z"},"Y":{"x_min":0,"x_max":656,"ha":656,"o":"m 376 72 l 455 72 l 455 0 l 203 0 l 203 72 l 281 72 l 281 322 l 92 648 l 16 648 l 16 720 l 269 720 l 269 648 l 197 648 l 331 409 l 471 648 l 400 648 l 400 720 l 642 720 l 642 648 l 565 648 l 376 322 z"},"c":{"x_min":0,"x_max":491,"ha":491,"o":"m 417 133 l 463 88 q 425 39 373 13 q 320 -12 256 -12 q 152 -12 90 53 q 29 118 29 227 q 29 336 89 403 q 148 470 246 470 q 291 470 325 457 q 359 443 386 414 l 386 458 l 453 458 l 453 300 l 392 300 q 373 349 338 374 q 303 399 255 399 q 193 399 155 352 q 117 305 117 227 q 117 148 158 104 q 198 60 271 60 q 313 60 349 78 q 386 96 417 133 z"},"!":{"x_min":0,"x_max":319,"ha":319,"o":"m 195 177 l 125 177 l 106 720 l 214 720 z m 160 -12 q 132 -12 113 6 q 94 25 94 53 q 94 81 113 100 q 132 119 160 119 q 188 119 206 100 q 225 81 225 53 q 225 26 206 7 q 188 -12 160 -12 z"},"/":{"x_min":0,"x_max":306,"ha":306,"o":"m 329 734 l 83 -93 l 27 -93 l 273 734 z"},"[":{"x_min":0,"x_max":336,"ha":336,"o":"m 100 -86 l 100 720 l 307 720 l 307 650 l 186 650 l 186 -17 l 307 -17 l 307 -86 z"},"6":{"x_min":0,"x_max":528,"ha":528,"o":"m 396 521 q 389 579 358 608 q 328 637 275 637 q 206 637 177 598 q 149 560 149 452 l 149 372 q 176 398 210 412 q 244 425 284 425 q 372 425 430 363 q 488 301 488 208 q 488 111 429 48 q 370 -14 278 -14 q 178 -14 120 51 q 61 115 61 226 l 61 484 q 61 593 118 654 q 175 715 278 715 q 367 715 422 662 q 478 609 478 525 l 478 521 z m 275 63 q 331 63 365 103 q 400 142 400 207 q 400 272 365 311 q 331 350 275 350 q 220 350 185 311 q 151 272 151 207 q 151 142 185 103 q 220 63 275 63 z"},"r":{"x_min":0,"x_max":360,"ha":360,"o":"m 189 386 q 214 430 251 451 q 287 471 341 471 q 344 471 351 471 q 357 470 361 470 l 361 393 l 337 393 q 267 393 228 356 q 189 319 189 253 l 189 69 l 260 69 l 260 0 l 33 0 l 33 69 l 104 69 l 104 389 l 33 389 l 33 458 l 189 458 z"},"2":{"x_min":0,"x_max":528,"ha":528,"o":"m 58 443 q 57 459 56 467 q 56 475 56 481 q 56 594 114 655 q 171 716 278 716 q 366 716 422 664 q 477 612 477 530 q 477 485 458 441 q 439 397 401 354 l 156 72 l 399 72 l 399 199 l 486 199 l 486 0 l 53 0 l 53 67 l 333 401 q 359 432 373 465 q 386 498 386 533 q 386 582 355 609 q 324 637 269 637 q 205 637 173 598 q 142 559 142 479 q 142 465 142 457 q 143 450 143 443 z"},"{":{"x_min":0,"x_max":500,"ha":500,"o":"m 419 659 q 415 659 408 660 q 400 660 397 660 q 338 660 317 637 q 296 614 296 541 l 296 423 q 296 342 275 308 q 253 274 199 259 q 253 244 275 210 q 296 176 296 95 l 296 -23 q 296 -96 317 -118 q 338 -141 400 -141 l 419 -141 l 419 -202 l 402 -202 q 354 -202 324 -196 q 294 -190 274 -177 q 247 -159 236 -128 q 225 -97 225 -24 l 225 95 q 225 169 198 199 q 171 229 106 229 q 103 229 95 229 q 88 228 84 228 l 84 290 q 88 290 95 290 q 103 289 106 289 q 171 289 198 319 q 225 349 225 424 l 225 543 q 225 618 236 648 q 247 679 274 696 q 294 709 324 715 q 353 721 402 721 l 419 721 z"},"9":{"x_min":0,"x_max":528,"ha":528,"o":"m 130 180 q 137 119 166 91 q 196 63 252 63 q 320 63 349 105 q 378 147 378 249 l 378 329 q 351 302 317 289 q 284 276 244 276 q 156 276 98 338 q 39 400 39 493 q 39 590 98 652 q 158 715 250 715 q 350 715 408 650 q 466 586 466 475 l 466 216 q 466 106 409 46 q 353 -14 250 -14 q 158 -14 102 39 q 45 92 45 178 l 45 180 z m 253 638 q 198 638 163 599 q 128 559 128 494 q 128 429 163 390 q 197 351 253 351 q 309 351 343 390 q 377 429 377 494 q 377 559 343 599 q 308 638 253 638 z"}," ":{"x_min":0,"x_max":264,"ha":264,"o":""},"I":{"x_min":0,"x_max":306,"ha":306,"o":"m 200 72 l 279 72 l 279 0 l 27 0 l 27 72 l 105 72 l 105 648 l 27 648 l 27 720 l 279 720 l 279 648 l 200 648 z"},"H":{"x_min":0,"x_max":726,"ha":726,"o":"m 525 410 l 525 648 l 447 648 l 447 720 l 699 720 l 699 648 l 620 648 l 620 72 l 699 72 l 699 0 l 447 0 l 447 72 l 525 72 l 525 329 l 200 329 l 200 72 l 279 72 l 279 0 l 27 0 l 27 72 l 105 72 l 105 648 l 27 648 l 27 720 l 279 720 l 279 648 l 200 648 l 200 410 z"},"4":{"x_min":0,"x_max":528,"ha":528,"o":"m 312 257 l 312 460 q 312 485 314 511 q 316 537 321 565 l 123 257 z m 212 0 l 212 71 l 312 71 l 312 189 l 37 189 l 37 257 l 321 701 l 397 701 l 397 257 l 484 257 l 484 189 l 397 189 l 397 71 l 484 71 l 484 0 z"},"~":{"x_min":0,"x_max":833,"ha":833,"o":"m 747 306 q 698 271 651 253 q 604 236 558 236 q 537 236 514 240 q 491 245 465 253 q 450 258 422 268 q 324 303 275 303 q 234 303 190 285 q 146 267 87 225 l 87 290 q 138 326 186 343 q 233 361 276 361 q 303 361 333 355 q 362 349 418 329 q 425 327 439 321 q 517 293 559 293 q 600 293 644 311 q 688 329 747 370 z"},"D":{"x_min":0,"x_max":731,"ha":731,"o":"m 200 648 l 200 72 l 290 72 q 439 72 520 146 q 600 221 600 360 q 600 499 520 573 q 439 648 290 648 z m 27 0 l 27 72 l 105 72 l 105 648 l 27 648 l 27 720 l 293 720 q 487 720 593 626 q 698 532 698 360 q 698 188 593 94 q 487 0 293 0 z"},"^":{"x_min":0,"x_max":1000,"ha":1000,"o":"m 539 712 l 793 440 l 716 440 l 500 654 l 284 440 l 206 440 l 460 712 z"},"0":{"x_min":0,"x_max":528,"ha":528,"o":"m 49 262 l 49 440 q 49 516 56 551 q 63 586 80 614 q 109 664 156 689 q 203 715 264 715 q 325 715 373 689 q 420 663 448 614 q 464 587 471 554 q 478 521 478 461 l 478 440 l 478 239 q 478 189 473 161 q 469 133 458 109 q 433 51 382 18 q 331 -14 264 -14 q 204 -14 156 12 q 109 38 80 88 q 63 116 56 151 q 49 186 49 262 z m 137 264 q 137 208 141 181 q 146 155 155 136 q 171 104 199 86 q 228 68 263 68 q 299 68 327 86 q 356 104 372 136 q 382 155 386 182 q 390 208 390 264 l 390 438 q 390 489 387 512 q 384 535 378 552 q 365 589 333 612 q 302 634 263 634 q 229 634 200 616 q 172 598 155 565 q 146 546 141 520 q 137 494 137 438 z"},"F":{"x_min":0,"x_max":569,"ha":569,"o":"m 27 0 l 27 72 l 105 72 l 105 648 l 27 648 l 27 720 l 584 720 l 584 525 l 499 525 l 499 648 l 200 648 l 200 419 l 445 419 l 445 340 l 200 340 l 200 72 l 302 72 l 302 0 z"},"`":{"x_min":0,"x_max":500,"ha":500,"o":"m 317 525 l 265 525 l 128 695 l 215 695 z"},"k":{"x_min":0,"x_max":521,"ha":521,"o":"m 101 650 l 31 650 l 31 720 l 184 720 l 184 252 l 356 389 l 293 389 l 293 458 l 510 458 l 510 389 l 460 389 l 281 244 l 456 69 l 510 69 l 510 0 l 297 0 l 297 69 l 353 69 l 184 236 l 184 69 l 243 69 l 243 0 l 31 0 l 31 69 l 101 69 z"},"u":{"x_min":0,"x_max":574,"ha":574,"o":"m 83 389 l 13 389 l 13 458 l 169 458 l 169 183 q 169 111 188 88 q 206 66 250 66 q 286 66 321 85 q 356 104 394 144 l 394 389 l 323 389 l 323 458 l 480 458 l 480 70 l 550 70 l 550 0 l 394 0 l 394 66 q 354 26 313 7 q 272 -12 227 -12 q 152 -12 118 27 q 83 67 83 153 z"},"]":{"x_min":0,"x_max":336,"ha":336,"o":"m 236 -86 l 28 -86 l 28 -17 l 150 -17 l 150 650 l 28 650 l 28 720 l 236 720 z"},"U":{"x_min":0,"x_max":711,"ha":711,"o":"m 202 252 q 202 152 238 111 q 273 69 355 69 q 437 69 473 111 q 509 153 509 252 l 509 648 l 430 648 l 430 720 l 683 720 l 683 648 l 604 648 l 604 252 q 604 118 542 52 q 480 -14 355 -14 q 229 -14 168 52 q 107 118 107 252 l 107 648 l 28 648 l 28 720 l 280 720 l 280 648 l 202 648 z"},"o":{"x_min":0,"x_max":560,"ha":560,"o":"m 29 230 q 29 333 101 401 q 172 470 280 470 q 388 470 459 401 q 531 333 531 230 q 531 127 459 58 q 388 -11 280 -11 q 172 -11 101 58 q 29 127 29 230 z m 118 230 q 118 157 165 109 q 211 61 280 61 q 350 61 396 109 q 442 156 442 230 q 442 304 396 351 q 350 399 280 399 q 211 399 165 351 q 118 303 118 230 z"},"N":{"x_min":0,"x_max":719,"ha":719,"o":"m 202 72 l 281 72 l 281 0 l 32 0 l 32 72 l 113 72 l 113 648 l 32 648 l 32 720 l 212 720 l 516 196 l 516 648 l 437 648 l 437 720 l 686 720 l 686 648 l 605 648 l 605 -14 l 533 -14 l 202 554 z"},"+":{"x_min":0,"x_max":833,"ha":833,"o":"m 446 596 l 446 327 l 709 327 l 709 270 l 446 270 l 446 0 l 388 0 l 388 270 l 124 270 l 124 327 l 388 327 l 388 596 z"},"G":{"x_min":0,"x_max":826,"ha":826,"o":"m 719 0 l 638 0 l 638 78 q 585 30 529 8 q 473 -14 405 -14 q 244 -14 139 92 q 34 199 34 360 q 34 521 139 628 q 244 734 405 734 q 467 734 522 712 q 577 690 622 647 l 622 720 l 701 720 l 701 471 l 636 471 q 610 559 551 604 q 492 650 405 650 q 288 650 209 568 q 131 486 131 360 q 131 234 209 152 q 288 70 405 70 q 494 70 553 114 q 612 158 638 244 l 458 244 l 458 322 l 799 322 l 799 244 l 719 244 z"},"q":{"x_min":0,"x_max":616,"ha":616,"o":"m 512 389 l 512 -139 l 582 -139 l 582 -208 l 351 -208 l 351 -139 l 426 -139 l 426 55 q 393 20 356 4 q 319 -11 270 -11 q 166 -11 97 57 q 29 126 29 229 q 29 331 96 401 q 164 470 264 470 q 313 470 353 454 q 392 438 426 403 l 426 458 l 582 458 l 582 389 z m 119 229 q 119 156 164 108 q 209 60 276 60 q 343 60 387 108 q 432 156 432 229 q 432 302 387 350 q 343 397 276 397 q 207 397 163 350 q 119 303 119 229 z"},"d":{"x_min":0,"x_max":611,"ha":611,"o":"m 426 650 l 349 650 l 349 720 l 512 720 l 512 69 l 582 69 l 582 0 l 426 0 l 426 55 q 393 20 356 4 q 319 -11 270 -11 q 166 -11 97 57 q 29 126 29 229 q 29 331 96 401 q 164 470 264 470 q 313 470 353 454 q 392 438 426 403 z m 119 229 q 119 156 164 108 q 209 60 276 60 q 343 60 387 108 q 432 156 432 229 q 432 302 387 350 q 343 397 276 397 q 207 397 163 350 q 119 303 119 229 z"},"1":{"x_min":0,"x_max":528,"ha":528,"o":"m 135 0 l 135 71 l 224 71 l 224 631 l 135 631 l 135 702 l 312 702 l 312 71 l 401 71 l 401 0 z"},"5":{"x_min":0,"x_max":528,"ha":528,"o":"m 134 209 l 134 204 q 134 140 168 103 q 202 65 258 65 q 320 65 357 107 q 393 149 393 222 q 393 299 347 338 q 301 377 210 377 q 190 377 162 375 q 134 372 99 367 l 99 701 l 424 701 l 424 629 l 180 629 l 180 452 q 193 453 205 453 q 217 453 234 453 q 351 453 416 392 q 481 330 481 221 q 481 116 420 51 q 360 -14 262 -14 q 165 -14 107 46 q 50 106 50 207 l 50 209 z"}}}
